<?xml version="1.0" encoding="utf-8"?>
<!-- Generator: Adobe Illustrator 19.1.0, SVG Export Plug-In . SVG Version: 6.00 Build 0)  -->
<svg version="1.1" id="Layer_1" xmlns="http://www.w3.org/2000/svg" xmlns:xlink="http://www.w3.org/1999/xlink" x="0px" y="0px"
	 viewBox="0 0 106.5 65.5" style="enable-background:new 0 0 106.5 65.5;" xml:space="preserve">
<style type="text/css">
	.st0{fill:#0A72BA;}
</style>
<g>
	<g>
		<path class="st0" d="M2.6,9.3h9.5c10.7,0,15.4,4.8,15.4,13.9c0,6.6-2.9,13.9-13.9,13.9H2.6V9.3z M9.6,31.5h2.2
			c6,0,8.7-2.1,8.7-8.4c0-4.3-1.4-8-7.5-8H9.6V31.5z"/>
	</g>
	<g>
		<path class="st0" d="M64.8,17.9c-1-2-3.3-3.9-6.5-3.9c-4.4,0-7.2,3.3-7.2,9c0,3.3,1,9.1,7.3,9.1c2.5,0,5.8-1.2,6.1-5.2h-6.2v-5.3
			h12.1v15.4h-5.4v-2.6c-3.4,3.1-6.6,3.2-8.2,3.2c-8.6,0-12.5-7.5-12.5-14.5c0-6.6,3.9-14.8,13.7-14.8c7.4,0,11.1,4.9,12.2,6.4
			L64.8,17.9z"/>
	</g>
	<g>
		<path class="st0" d="M88.3,27.9c0,4.1-2.6,6.8-7,6.8c-3.8,0-6.9-2-6.9-6.5V18h4.1v10.6c0,2.2,1.1,2.7,2.9,2.7c2.1,0,2.8-1,2.8-2.9
			V18h4.1V27.9z"/>
		<path class="st0" d="M100.4,18c3.9,0,5.9,1.8,5.9,5.6c0,4.1-3.6,5.4-6.6,5.4h-3.3v5.3h-4.1V18H100.4z M96.4,26h2.7
			c1.8,0,3.1-0.4,3.1-2.6c0-2.4-1.9-2.4-3.2-2.4h-2.6V26z"/>
	</g>
	<g>
		<path class="st0" d="M61.6,40.7v5.7h-1.8v-5.7H58v-1.4h5.4v1.4H61.6z"/>
		<path class="st0" d="M68.6,46.4v-3H66v3h-1.8v-7.1H66v2.5h2.6v-2.5h1.8v7.1H68.6z"/>
		<path class="st0" d="M72.1,39.3h5.2v1.4h-3.5V42h3.2v1.3h-3.2V45h3.8v1.4h-5.5V39.3z"/>
		<path class="st0" d="M85,39.3c1.7,0,2.5,0.8,2.5,2.4c0,1.8-1.6,2.3-2.8,2.3h-1.4v2.3h-1.8v-7.1H85z M83.3,42.8h1.2
			c0.8,0,1.4-0.2,1.4-1.1c0-1-0.8-1-1.4-1h-1.1V42.8z"/>
		<path class="st0" d="M92.3,46.4l-0.3-1.1h-2.6L89,46.4h-1.9l2.6-7.1h1.8l2.6,7.1H92.3z M90.6,41l-0.9,3h1.8L90.6,41z"/>
		<path class="st0" d="M99.3,41.4c-0.5-0.5-1.1-0.9-1.8-0.9c-0.7,0-1,0.4-1,0.7c0,0.4,0.3,0.6,0.9,0.6l0.8,0.1
			c1.8,0.3,2.6,0.8,2.6,2c0,1.5-1.2,2.5-3.2,2.5c-1.6,0-2.5-0.6-3.2-1.4l1.3-0.8c0.5,0.6,1.3,0.9,2,0.9c0.5,0,1.3-0.2,1.3-0.8
			c0-0.5-0.6-0.6-1.2-0.7l-0.8-0.1c-1.2-0.2-2.2-0.7-2.2-2c0-1.4,1-2.4,2.8-2.4c1.5,0,2.4,0.7,3.1,1.3L99.3,41.4z"/>
		<path class="st0" d="M104.7,40.7v5.7H103v-5.7h-1.8v-1.4h5.4v1.4H104.7z"/>
	</g>
	<g>
		<path class="st0" d="M38.9,27.3c-1.3-0.1-1.2-1.8-1.2-2.7h0.7c0.4,0,0.7-0.2,0.7-0.5v-1.8c0.7-0.4,1.1-1.1,1.1-2V2.2
			c0-1.2-0.9-2.2-2-2.2H36c-1.1,0-2,1-2,2.2v18.1c0,0.9,0.4,1.6,1.1,2V24c0,0.3,0.3,0.5,0.7,0.5h0.7c0,0.9,0.1,2.6-1.2,2.7h-3.7
			v14.4v2.5c0,4.1,3.1,9.4,5.5,9.4c0,0,0,0,0.1,0c0,0,0,0,0.1,0c2.4,0,5.5-5.3,5.5-9.4v-2.5V27.3H38.9z M37,1.9
			c0.7,0,1.2,0.5,1.2,1.2S37.7,4.3,37,4.3c-0.7,0-1.2-0.5-1.2-1.2S36.4,1.9,37,1.9z"/>
	</g>
	<g>
		<path class="st0" d="M48.6,52.5l2.5-1.3L51,48.6c-0.7-1.5-1.5-2.7-2.4-4.1l-1.5,2.3L45,48.5l0.7,2.9L48.6,52.5z"/>
		<path class="st0" d="M43.6,63.1l1.6,1.3l1.9-0.8l1.8-1.3v-2.2c-0.3-0.6-0.5-1.4-0.7-1.9c-0.4-0.5-0.9-1-1.3-1.5L45,55.5l-1.7,1.3
			l-1.9,1.1l-0.3,2.2l1,1.9L43.6,63.1z"/>
		<path class="st0" d="M53.7,58.9l1.3,0.8l1.7,2.5l1.6-2.8l2.6,0.6l-0.7-2.3v-1.6c-0.3-0.4-0.9-1.7-1.3-1.8
			c-0.2-0.1-0.9,0.3-1.1,0.3c-0.5,0.2-0.9,0.3-1.1,0.4l-1.8,0.6l-2.5-0.2l0.4,2.4L53.7,58.9z"/>
	</g>
	<path class="st0" d="M21.7,43.1l1.3,0.8l1.7,2.5l1.6-2.8l2.6,0.6l-0.7-2.3v-1.6c-0.3-0.4-0.9-1.7-1.3-1.8c-0.2-0.1-0.9,0.3-1.1,0.3
		c-0.5,0.2-0.9,0.3-1.1,0.4l-1.8,0.6l-2.5-0.2l0.4,2.4L21.7,43.1z"/>
	<path class="st0" d="M11.3,47.4l1.6,1.3l1.9-0.8l1.8-1.3v-2.2c-0.3-0.6-0.5-1.4-0.7-1.9c-0.4-0.5-0.9-1-1.3-1.5l-1.9-1.2L11,41.1
		l-1.9,1.1l-0.3,2.2l1,1.9L11.3,47.4z"/>
</g>
</svg>
