<?xml version="1.0" encoding="utf-8"?>
<!-- Generator: Adobe Illustrator 19.1.0, SVG Export Plug-In . SVG Version: 6.00 Build 0)  -->
<svg version="1.1" id="Layer_1" xmlns="http://www.w3.org/2000/svg" xmlns:xlink="http://www.w3.org/1999/xlink" x="0px" y="0px"
	 viewBox="0 0 106.5 65.5" style="enable-background:new 0 0 106.5 65.5;" xml:space="preserve">
<style type="text/css">
	.st0{fill:none;}
	.st1{fill:#0A72BA;}
	.st2{font-family:'AkzidenzGroteskStd-Bold';}
	.st3{font-size:39.3657px;}
	.st4{font-size:23.0863px;}
	.st5{font-size:10.0019px;}
</style>
<g>
	<rect x="0" y="9.3" class="st0" width="35.5" height="35"/>
	<text transform="matrix(1 0 0 1 8.392334e-05 37.0512)" class="st1 st2 st3">D</text>
	<rect x="42.6" y="9.3" class="st0" width="35.5" height="35"/>
	<text transform="matrix(1 0 0 1 42.5867 37.0513)" class="st1 st2 st3">G</text>
	<text transform="matrix(1 0 0 1 72.9894 34.3154)" class="st1 st2 st4">UP</text>
	<text transform="matrix(1 0 0 1 57.9033 46.3828)" class="st1 st2 st5">THE PAST</text>
	<g>
		<path class="st1" d="M38.9,27.3c-1.3-0.1-1.2-1.8-1.2-2.7h0.7c0.4,0,0.7-0.2,0.7-0.5v-1.8c0.7-0.4,1.1-1.1,1.1-2V2.2
			c0-1.2-0.9-2.2-2-2.2H36c-1.1,0-2,1-2,2.2v18.1c0,0.9,0.4,1.6,1.1,2V24c0,0.3,0.3,0.5,0.7,0.5h0.7c0,0.9,0.1,2.6-1.2,2.7h-3.7
			v14.4v2.5c0,4.1,3.1,9.4,5.5,9.4c0,0,0,0,0.1,0c0,0,0,0,0.1,0c2.4,0,5.5-5.3,5.5-9.4v-2.5V27.3H38.9z M37,1.9
			c0.7,0,1.2,0.5,1.2,1.2S37.7,4.3,37,4.3c-0.7,0-1.2-0.5-1.2-1.2S36.4,1.9,37,1.9z"/>
	</g>
	<g>
		<path class="st1" d="M48.6,52.5l2.5-1.3L51,48.6c-0.7-1.5-1.5-2.7-2.4-4.1l-1.5,2.3L45,48.5l0.7,2.9L48.6,52.5z"/>
		<path class="st1" d="M43.6,63.1l1.6,1.3l1.9-0.8l1.8-1.3v-2.2c-0.3-0.6-0.5-1.4-0.7-1.9c-0.4-0.5-0.9-1-1.3-1.5L45,55.5l-1.7,1.3
			l-1.9,1.1l-0.3,2.2l1,1.9L43.6,63.1z"/>
		<path class="st1" d="M53.7,58.9l1.3,0.8l1.7,2.5l1.6-2.8l2.6,0.6l-0.7-2.3v-1.6c-0.3-0.4-0.9-1.7-1.3-1.8
			c-0.2-0.1-0.9,0.3-1.1,0.3c-0.5,0.2-0.9,0.3-1.1,0.4l-1.8,0.6l-2.5-0.2l0.4,2.4L53.7,58.9z"/>
	</g>
	<path class="st1" d="M21.7,43.1l1.3,0.8l1.7,2.5l1.6-2.8l2.6,0.6l-0.7-2.3v-1.6c-0.3-0.4-0.9-1.7-1.3-1.8c-0.2-0.1-0.9,0.3-1.1,0.3
		c-0.5,0.2-0.9,0.3-1.1,0.4l-1.8,0.6l-2.5-0.2l0.4,2.4L21.7,43.1z"/>
	<path class="st1" d="M11.3,47.4l1.6,1.3l1.9-0.8l1.8-1.3v-2.2c-0.3-0.6-0.5-1.4-0.7-1.9c-0.4-0.5-0.9-1-1.3-1.5l-1.9-1.2L11,41.1
		l-1.9,1.1l-0.3,2.2l1,1.9L11.3,47.4z"/>
</g>
</svg>
