<?xml version="1.0" encoding="utf-8"?>
<!-- Generator: Adobe Illustrator 19.1.0, SVG Export Plug-In . SVG Version: 6.00 Build 0)  -->
<svg version="1.1" id="Layer_1" xmlns="http://www.w3.org/2000/svg" xmlns:xlink="http://www.w3.org/1999/xlink" x="0px" y="0px"
	 viewBox="-252 364.5 106.5 65.5" style="enable-background:new -252 364.5 106.5 65.5;" xml:space="preserve">
<style type="text/css">
	.st0{fill:#13557A;}
</style>
<g>
	<g>
		<path class="st0" d="M-249.4,373.8h9.5c10.7,0,15.4,4.8,15.4,13.9c0,6.6-2.9,13.9-13.9,13.9h-11V373.8z M-242.4,396h2.2
			c6,0,8.7-2.1,8.7-8.4c0-4.3-1.4-8-7.5-8h-3.4V396z"/>
	</g>
	<g>
		<path class="st0" d="M-187.2,382.4c-1-2-3.3-3.9-6.5-3.9c-4.4,0-7.2,3.3-7.2,9c0,3.3,1,9.1,7.3,9.1c2.5,0,5.8-1.2,6.1-5.2h-6.2
			v-5.3h12.1v15.4h-5.4v-2.6c-3.4,3.1-6.6,3.2-8.2,3.2c-8.6,0-12.5-7.5-12.5-14.5c0-6.6,3.9-14.8,13.7-14.8c7.4,0,11.1,4.9,12.2,6.4
			L-187.2,382.4z"/>
	</g>
	<g>
		<path class="st0" d="M-163.7,392.4c0,4.1-2.6,6.8-7,6.8c-3.8,0-6.9-2-6.9-6.5v-10.2h4.1v10.6c0,2.2,1.1,2.7,2.9,2.7
			c2.1,0,2.8-1,2.8-2.9v-10.4h4.1V392.4z"/>
		<path class="st0" d="M-151.6,382.5c3.9,0,5.9,1.8,5.9,5.6c0,4.1-3.6,5.4-6.6,5.4h-3.3v5.3h-4.1v-16.3H-151.6z M-155.6,390.5h2.7
			c1.8,0,3.1-0.4,3.1-2.6c0-2.4-1.9-2.4-3.2-2.4h-2.6V390.5z"/>
	</g>
	<g>
		<path class="st0" d="M-190.4,405.2v5.7h-1.8v-5.7h-1.8v-1.4h5.4v1.4H-190.4z"/>
		<path class="st0" d="M-183.4,410.9v-3h-2.6v3h-1.8v-7.1h1.8v2.5h2.6v-2.5h1.8v7.1H-183.4z"/>
		<path class="st0" d="M-179.9,403.8h5.2v1.4h-3.5v1.3h3.2v1.3h-3.2v1.7h3.8v1.4h-5.5V403.8z"/>
		<path class="st0" d="M-167,403.8c1.7,0,2.5,0.8,2.5,2.4c0,1.8-1.6,2.3-2.8,2.3h-1.4v2.3h-1.8v-7.1L-167,403.8L-167,403.8z
			 M-168.7,407.3h1.2c0.8,0,1.4-0.2,1.4-1.1c0-1-0.8-1-1.4-1h-1.1L-168.7,407.3L-168.7,407.3z"/>
		<path class="st0" d="M-159.7,410.9l-0.3-1.1h-2.6l-0.4,1.1h-1.9l2.6-7.1h1.8l2.6,7.1H-159.7z M-161.4,405.5l-0.9,3h1.8
			L-161.4,405.5z"/>
		<path class="st0" d="M-152.7,405.9c-0.5-0.5-1.1-0.9-1.8-0.9c-0.7,0-1,0.4-1,0.7c0,0.4,0.3,0.6,0.9,0.6l0.8,0.1
			c1.8,0.3,2.6,0.8,2.6,2c0,1.5-1.2,2.5-3.2,2.5c-1.6,0-2.5-0.6-3.2-1.4l1.3-0.8c0.5,0.6,1.3,0.9,2,0.9c0.5,0,1.3-0.2,1.3-0.8
			c0-0.5-0.6-0.6-1.2-0.7l-0.8-0.1c-1.2-0.2-2.2-0.7-2.2-2c0-1.4,1-2.4,2.8-2.4c1.5,0,2.4,0.7,3.1,1.3L-152.7,405.9z"/>
		<path class="st0" d="M-147.3,405.2v5.7h-1.7v-5.7h-1.8v-1.4h5.4v1.4H-147.3z"/>
	</g>
	<g>
		<path class="st0" d="M-213.1,391.8c-1.3-0.1-1.2-1.8-1.2-2.7h0.7c0.4,0,0.7-0.2,0.7-0.5v-1.8c0.7-0.4,1.1-1.1,1.1-2v-18.1
			c0-1.2-0.9-2.2-2-2.2h-2.2c-1.1,0-2,1-2,2.2v18.1c0,0.9,0.4,1.6,1.1,2v1.7c0,0.3,0.3,0.5,0.7,0.5h0.7c0,0.9,0.1,2.6-1.2,2.7h-3.7
			v14.4v2.5c0,4.1,3.1,9.4,5.5,9.4c0,0,0,0,0.1,0c0,0,0,0,0.1,0c2.4,0,5.5-5.3,5.5-9.4v-2.5v-14.3H-213.1z M-215,366.4
			c0.7,0,1.2,0.5,1.2,1.2c0,0.7-0.5,1.2-1.2,1.2s-1.2-0.5-1.2-1.2C-216.2,366.9-215.6,366.4-215,366.4z"/>
	</g>
	<g>
		<path class="st0" d="M-203.4,417l2.5-1.3l-0.1-2.6c-0.7-1.5-1.5-2.7-2.4-4.1l-1.5,2.3l-2.1,1.7l0.7,2.9L-203.4,417z"/>
		<path class="st0" d="M-208.4,427.6l1.6,1.3l1.9-0.8l1.8-1.3v-2.2c-0.3-0.6-0.5-1.4-0.7-1.9c-0.4-0.5-0.9-1-1.3-1.5l-1.9-1.2
			l-1.7,1.3l-1.9,1.1l-0.3,2.2l1,1.9L-208.4,427.6z"/>
		<path class="st0" d="M-198.3,423.4l1.3,0.8l1.7,2.5l1.6-2.8l2.6,0.6l-0.7-2.3v-1.6c-0.3-0.4-0.9-1.7-1.3-1.8
			c-0.2-0.1-0.9,0.3-1.1,0.3c-0.5,0.2-0.9,0.3-1.1,0.4l-1.8,0.6l-2.5-0.2l0.4,2.4L-198.3,423.4z"/>
	</g>
	<path class="st0" d="M-230.3,407.6l1.3,0.8l1.7,2.5l1.6-2.8l2.6,0.6l-0.7-2.3v-1.6c-0.3-0.4-0.9-1.7-1.3-1.8
		c-0.2-0.1-0.9,0.3-1.1,0.3c-0.5,0.2-0.9,0.3-1.1,0.4l-1.8,0.6l-2.5-0.2l0.4,2.4L-230.3,407.6z"/>
	<path class="st0" d="M-240.7,411.9l1.6,1.3l1.9-0.8l1.8-1.3v-2.2c-0.3-0.6-0.5-1.4-0.7-1.9c-0.4-0.5-0.9-1-1.3-1.5l-1.9-1.2
		l-1.7,1.3l-1.9,1.1l-0.3,2.2l1,1.9L-240.7,411.9z"/>
</g>
</svg>
